<?xml version="1.0" standalone="no"?>
<!DOCTYPE svg PUBLIC "-//W3C//DTD SVG 20010904//EN"
 "http://www.w3.org/TR/2001/REC-SVG-20010904/DTD/svg10.dtd">
<svg version="1.0" xmlns="http://www.w3.org/2000/svg"
 width="355.000000pt" height="355.000000pt" viewBox="0 0 355.000000 355.000000"
 preserveAspectRatio="xMidYMid meet">
<metadata>
Created by potrace 1.11, written by Peter Selinger 2001-2013
</metadata>
<g transform="translate(0.000000,355.000000) scale(0.100000,-0.100000)"
fill="#000000" stroke="none">
<path d="M368 3505 c-81 -22 -141 -57 -203 -119 -34 -34 -71 -81 -83 -104 -53
-103 -52 -62 -51 -1517 1 -1324 1 -1351 21 -1410 53 -158 193 -280 348 -303
30 -4 658 -7 1395 -7 l1340 2 64 22 c147 51 258 172 292 316 8 36 11 419 11
1400 1 1252 -1 1355 -17 1410 -44 151 -158 264 -311 306 -59 16 -156 17 -1411
17 -1048 0 -1358 -3 -1395 -13z m2282 -75 c0 -3 -36 -18 -81 -34 l-80 -29
-927 0 -927 0 -64 -24 c-125 -46 -198 -124 -245 -259 -12 -35 -14 -201 -15
-1030 0 -544 0 -1007 0 -1030 -1 -39 -5 -45 -96 -123 -51 -44 -96 -81 -98 -81
-3 0 -5 514 -4 1142 0 856 3 1155 12 1194 31 135 150 249 284 272 48 8 2241
10 2241 2z m240 -154 c25 -4 61 -15 80 -24 50 -23 117 -94 143 -150 l22 -47 0
-1140 0 -1140 -24 -52 c-27 -61 -93 -126 -159 -156 l-47 -22 -1126 -1 c-1066
-2 -1129 -1 -1178 16 -101 36 -172 117 -196 224 -8 37 -11 359 -10 1156 l0
1105 29 59 c47 95 115 151 213 171 59 12 2179 13 2253 1z"/>
<path d="M1390 2800 c-118 -34 -200 -146 -203 -276 l-2 -65 -35 7 c-104 22
-188 -3 -254 -77 -112 -125 -106 -326 14 -438 l40 -37 -47 -50 c-92 -95 -113
-246 -53 -365 30 -57 96 -116 153 -135 48 -16 130 -16 169 0 14 7 16 0 16 -47
-2 -195 161 -335 336 -286 58 16 138 100 162 169 17 51 18 98 18 715 0 731 1
718 -65 798 -60 73 -167 111 -249 87z"/>
<path d="M2035 2801 c-64 -16 -118 -57 -157 -121 -41 -68 -42 -78 -43 -760 -1
-758 -4 -730 89 -826 92 -94 214 -100 323 -17 64 49 115 169 107 253 -4 40 -4
40 24 33 15 -5 56 -8 92 -8 148 1 252 119 254 290 1 97 -29 171 -93 230 l-41
38 39 34 c95 81 126 244 70 364 -60 128 -170 183 -309 155 l-36 -7 2 47 c4 88
-43 196 -104 241 -67 50 -149 70 -217 54z"/>
</g>
</svg>
